<?xml version="1.0" standalone="no"?>
<!DOCTYPE svg PUBLIC "-//W3C//DTD SVG 20010904//EN"
 "http://www.w3.org/TR/2001/REC-SVG-20010904/DTD/svg10.dtd">
<svg version="1.0" xmlns="http://www.w3.org/2000/svg"
 width="40" height="42" viewBox="0 0 64.000000 64.000000"
 preserveAspectRatio="xMidYMid meet">

<g transform="translate(0.000000,64.000000) scale(0.100000,-0.100000)"
fill="#FFBC5E" stroke="none">
<path d="M420 599 c0 -19 -4 -20 -33 -15 -26 5 -38 2 -52 -14 -15 -17 -16 -22
-4 -36 11 -14 10 -19 -9 -34 -29 -24 -28 -63 0 -82 20 -13 21 -17 9 -32 -12
-14 -11 -19 5 -37 13 -15 25 -18 47 -13 23 5 29 2 34 -15 4 -16 13 -21 38 -21
25 0 34 5 38 21 5 17 11 20 34 15 36 -8 73 24 55 47 -13 15 -4 31 21 40 21 8
24 67 3 67 -7 0 -19 7 -26 15 -10 12 -10 18 0 30 20 25 -15 58 -53 49 -23 -5
-29 -2 -34 15 -4 16 -13 21 -39 21 -28 0 -34 -4 -34 -21z m50 -12 c0 -20 49
-40 65 -27 15 12 30 -3 20 -20 -10 -17 6 -59 26 -65 25 -8 24 -25 0 -32 -20
-5 -36 -46 -26 -63 10 -17 -5 -32 -20 -20 -16 13 -65 -7 -65 -27 0 -7 -7 -13
-15 -13 -8 0 -15 6 -15 13 0 20 -49 40 -65 27 -15 -12 -30 3 -20 20 9 15 -6
60 -21 60 -19 0 -18 20 3 35 9 7 17 29 19 51 3 50 2 48 18 35 17 -14 66 5 66
26 0 7 7 13 15 13 8 0 15 -6 15 -13z"/>
<path d="M416 509 c-35 -28 -33 -73 5 -102 68 -50 139 50 73 102 -33 26 -45
26 -78 0z m65 -9 c39 -21 16 -90 -30 -90 -16 0 -41 30 -41 50 0 20 25 50 41
50 6 0 19 -5 30 -10z"/>
<path d="M109 451 c-48 -48 -36 -111 27 -137 95 -40 166 91 82 150 -35 25 -76
20 -109 -13z m113 -22 c26 -35 15 -77 -25 -94 -36 -15 -63 -9 -82 18 -52 75
53 149 107 76z"/>
<path d="M56 257 c-45 -45 -48 -185 -6 -219 20 -16 48 -18 251 -18 146 0 229
4 229 10 0 6 -16 10 -35 10 -19 0 -35 3 -35 7 0 3 16 34 35 69 49 87 44 94
-69 94 l-91 0 -15 33 -15 32 -113 3 c-107 3 -113 2 -136 -21z m248 -19 c9 -14
6 -21 -11 -33 -12 -8 -31 -31 -43 -50 -20 -32 -25 -35 -71 -35 -45 0 -49 2
-49 24 0 14 -5 28 -11 31 -7 5 -9 -6 -7 -31 3 -39 3 -39 51 -42 53 -3 51 -2
35 -37 -10 -23 -17 -25 -69 -25 -48 0 -60 4 -73 22 -18 26 -21 103 -6 145 18
48 35 54 144 51 81 -2 101 -6 110 -20z m179 -100 l-28 -53 -58 -3 c-68 -4 -68
-22 1 -22 32 0 43 -3 36 -10 -7 -7 -53 -10 -117 -8 l-106 3 42 73 41 72 109 0
108 0 -28 -52z"/>
<path d="M305 70 c4 -6 11 -8 16 -5 14 9 11 15 -7 15 -8 0 -12 -5 -9 -10z"/>
</g>
</svg>
