<?xml version="1.0" encoding="UTF-8"?>
<svg version="1.1" xmlns="http://www.w3.org/2000/svg" width="32" height="32">
<path d="M0 0 C8.58 0 17.16 0 26 0 C26 10.56 26 21.12 26 32 C17.42 32 8.84 32 0 32 C0 21.44 0 10.88 0 0 Z " fill="#CFE2ED" transform="translate(3,0)"/>
<path d="M0 0 C3.63 0 7.26 0 11 0 C11 10.56 11 21.12 11 32 C7.37 32 3.74 32 0 32 C0 21.44 0 10.88 0 0 Z " fill="#94D8B9" transform="translate(3,0)"/>
<path d="M0 0 C3.3 0 6.6 0 10 0 C10 1.32 10 2.64 10 4 C7.69 4.66 5.38 5.32 3 6 C2.26665571 9.97754128 2.26665571 9.97754128 2 14 C4.64 14 7.28 14 10 14 C10 14.33 10 14.66 10 15 C7.36 15 4.72 15 2 15 C2 15.66 2 16.32 2 17 C4.97 17 7.94 17 11 17 C11 17.99 11 18.98 11 20 C10.01 20 9.02 20 8 20 C8 19.34 8 18.68 8 18 C6.02 18 4.04 18 2 18 C2.185625 18.94875 2.37125 19.8975 2.5625 20.875 C3 24 3 24 2 26 C4.97 26 7.94 26 11 26 C10.67 27.98 10.34 29.96 10 32 C6.7 32 3.4 32 0 32 C0 21.44 0 10.88 0 0 Z " fill="#D9EEEF" transform="translate(14,0)"/>
<path d="M0 0 C2.1640625 -0.29296875 2.1640625 -0.29296875 4.625 -0.1875 C5.44226563 -0.16042969 6.25953125 -0.13335938 7.1015625 -0.10546875 C8.04128906 -0.05326172 8.04128906 -0.05326172 9 0 C8.34 2.31 7.68 4.62 7 7 C7.99 7 8.98 7 10 7 C10 7.66 10 8.32 10 9 C6.37 9 2.74 9 -1 9 C-1.625 6.1875 -1.625 6.1875 -2 3 C-1.34 2.01 -0.68 1.02 0 0 Z " fill="#DDE0D9" transform="translate(17,5)"/>
<path d="M0 0 C2.33294775 -0.04241723 4.66702567 -0.04092937 7 0 C7.33 0.33 7.66 0.66 8 1 C7.71269945 3.33944736 7.38063221 5.6739143 7 8 C4.36 8 1.72 8 -1 8 C-1 7.01 -1 6.02 -1 5 C1.31 5 3.62 5 6 5 C6 4.34 6 3.68 6 3 C4.02 3 2.04 3 0 3 C0 2.01 0 1.02 0 0 Z " fill="#D1DE98" transform="translate(6,20)"/>
<path d="M0 0 C2.97 0 5.94 0 9 0 C9 1.32 9 2.64 9 4 C7.88625 4.28875 6.7725 4.5775 5.625 4.875 C1.99708908 5.69241329 1.99708908 5.69241329 0 8 C0 5.36 0 2.72 0 0 Z " fill="#F4F9FC" transform="translate(15,0)"/>
<path d="M0 0 C0.33 0.66 0.66 1.32 1 2 C3.64 2 6.28 2 9 2 C9 2.33 9 2.66 9 3 C6.36 3 3.72 3 1 3 C1 3.66 1 4.32 1 5 C3.97 5 6.94 5 10 5 C10 5.99 10 6.98 10 8 C9.01 8 8.02 8 7 8 C7 7.34 7 6.68 7 6 C5.02 6 3.04 6 1 6 C1.185625 6.886875 1.37125 7.77375 1.5625 8.6875 C1.98042484 11.85178811 1.80777742 13.94839642 1 17 C0.67 17 0.34 17 0 17 C0 11.39 0 5.78 0 0 Z " fill="#F3FAFE" transform="translate(15,12)"/>
<path d="M0 0 C1.67542976 0.28604898 3.34385343 0.61781233 5 1 C4.67 2.32 4.34 3.64 4 5 C3.67 4.01 3.34 3.02 3 2 C2.34 2 1.68 2 1 2 C0.67 2.99 0.34 3.98 0 5 C-0.5625 3.0625 -0.5625 3.0625 -1 1 C-0.67 0.67 -0.34 0.34 0 0 Z " fill="#EDD980" transform="translate(7,4)"/>
</svg>
