<?xml version="1.0" standalone="no"?>
<!DOCTYPE svg PUBLIC "-//W3C//DTD SVG 20010904//EN"
 "http://www.w3.org/TR/2001/REC-SVG-20010904/DTD/svg10.dtd">
<svg version="1.0" xmlns="http://www.w3.org/2000/svg"
 width="40" height="42" viewBox="0 0 64.000000 64.000000"
 preserveAspectRatio="xMidYMid meet">

<g transform="translate(0.000000,64.000000) scale(0.100000,-0.100000)"
fill="#FFBC5E" stroke="none">
<path d="M223 602 c-251 -90 -272 -432 -35 -549 81 -40 183 -40 264 0 107 53
163 144 163 267 0 85 -21 142 -74 203 -72 81 -213 117 -318 79z m144 -61 c37
-55 32 -61 -47 -61 -73 0 -79 4 -59 43 34 66 70 72 106 18z m-137 14 c0 -4 -7
-19 -15 -34 -11 -23 -19 -27 -40 -24 -34 7 -32 19 8 43 32 20 47 25 47 15z
m226 -16 c41 -25 43 -35 9 -42 -21 -3 -29 1 -40 24 -25 47 -19 50 31 18z
m-273 -89 c4 -4 5 -30 1 -59 l-7 -51 -58 0 c-33 0 -59 3 -59 8 0 18 21 77 35
99 14 20 21 23 48 18 18 -4 36 -10 40 -15z m368 -15 c9 -17 20 -45 24 -62 l7
-33 -60 0 -59 0 -7 51 c-7 55 -4 64 29 72 35 9 48 3 66 -28z m-137 -26 c14
-71 16 -69 -94 -69 -110 0 -108 -2 -94 69 l7 31 87 0 88 0 6 -31z m-230 -160
c8 -60 3 -67 -43 -71 -29 -3 -37 2 -52 27 -9 17 -20 45 -24 63 l-7 32 60 0 59
0 7 -51z m236 32 c0 -10 -3 -33 -6 -50 l-6 -31 -88 0 -87 0 -7 31 c-14 71 -16
69 94 69 91 0 100 -2 100 -19z m155 -13 c-4 -18 -15 -46 -24 -63 -15 -25 -23
-30 -52 -27 -46 4 -51 11 -43 71 l7 51 59 0 60 0 -7 -32z m-185 -122 c0 -28
-45 -81 -70 -81 -16 0 -32 11 -47 34 -37 55 -32 61 47 61 52 0 70 -3 70 -14z
m-175 -27 c22 -41 14 -46 -29 -19 -42 25 -45 37 -13 43 12 2 23 5 24 6 1 0 10
-13 18 -30z m275 11 c0 -11 -70 -54 -76 -47 -3 3 1 18 10 35 12 24 20 28 41
25 14 -3 25 -9 25 -13z"/>
</g>
</svg>
